<svg width="8" height="13" viewBox="0 0 1684 1678" fill="none" xmlns="http://www.w3.org/2000/svg">
<g filter="url(#filter0_d_1283_5)">
<path d="M117.43 217.625C50.3579 149.234 16.8217 115.039 14.716 85.7334C12.8886 60.3003 23.2946 35.5195 42.7322 19.0161C65.1293 0 113.025 0 208.816 0H1556C1600.8 0 1623.21 0 1640.32 8.71948C1655.37 16.3893 1667.61 28.6278 1675.28 43.6808C1684 60.7937 1684 83.1958 1684 128V1475.27C1684 1571.04 1684 1618.92 1664.99 1641.32C1648.49 1660.76 1623.71 1671.16 1598.28 1669.34C1568.98 1667.24 1534.78 1633.72 1466.39 1566.68L794.5 908L117.43 217.625Z" fill="white"/>
</g>
<defs>
<filter id="filter0_d_1283_5" x="0.509766" y="0" width="1683.49" height="1677.54" filterUnits="userSpaceOnUse" color-interpolation-filters="sRGB">
<feFlood flood-opacity="0" result="BackgroundImageFix"/>
<feColorMatrix in="SourceAlpha" type="matrix" values="0 0 0 0 0 0 0 0 0 0 0 0 0 0 0 0 0 0 127 0" result="hardAlpha"/>
<feOffset dx="-10" dy="4"/>
<feGaussianBlur stdDeviation="2"/>
<feComposite in2="hardAlpha" operator="out"/>
<feColorMatrix type="matrix" values="0 0 0 0 0 0 0 0 0 0 0 0 0 0 0 0 0 0 0.25 0"/>
<feBlend mode="normal" in2="BackgroundImageFix" result="effect1_dropShadow_1283_5"/>
<feBlend mode="normal" in="SourceGraphic" in2="effect1_dropShadow_1283_5" result="shape"/>
</filter>
</defs>
</svg>
